{
    "asset" : {
        "generator" : "Khronos glTF Blender I/O v1.5.17",
        "version" : "2.0"
    },
    "scene" : 0,
    "scenes" : [
        {
            "name" : "Scene",
            "nodes" : [
                0,
                1,
                2,
                3,
                4,
                5,
                6
            ]
        }
    ],
    "nodes" : [
        {
            "mesh" : 0,
            "name" : "Curve.002",
            "rotation" : [
                -0.2719230651855469,
                -0.631666362285614,
                0.05246437340974808,
                -0.7240877747535706
            ],
            "scale" : [
                -0.32431185245513916,
                0.3243117332458496,
                0.32431185245513916
            ],
            "translation" : [
                3.1660664081573486,
                1.1862565279006958,
                3.6668782234191895
            ]
        },
        {
            "mesh" : 1,
            "name" : "Curve",
            "rotation" : [
                0.30250874161720276,
                -0.7690346837043762,
                0.31730467081069946,
                0.4651794135570526
            ],
            "scale" : [
                -0.32431185245513916,
                0.3243117332458496,
                0.32431185245513916
            ],
            "translation" : [
                2.737746000289917,
                0.32961568236351013,
                -0.6163256168365479
            ]
        },
        {
            "name" : "Lamp.002",
            "rotation" : [
                0.14703252911567688,
                0.7986465096473694,
                -0.28468459844589233,
                0.5094112753868103
            ],
            "translation" : [
                -2.478421211242676,
                1.7911663055419922,
                6.511449813842773
            ]
        },
        {
            "mesh" : 2,
            "name" : "Curve.001",
            "rotation" : [
                0.40403425693511963,
                0.16184134781360626,
                -0.17014750838279724,
                0.8840892314910889
            ],
            "scale" : [
                -0.32431185245513916,
                0.3243117332458496,
                0.32431185245513916
            ],
            "translation" : [
                -1.1171376705169678,
                0.32961568236351013,
                -0.10234123468399048
            ]
        },
        {
            "name" : "Lamp.001",
            "rotation" : [
                0.14703252911567688,
                0.7986465096473694,
                -0.28468459844589233,
                0.5094112753868103
            ],
            "translation" : [
                3.3500466346740723,
                3.5544002056121826,
                3.376812219619751
            ]
        },
        {
            "name" : "Lamp",
            "rotation" : [
                0.14703252911567688,
                0.7986465096473694,
                -0.28468459844589233,
                0.5094112753868103
            ],
            "translation" : [
                2.9536237716674805,
                5.969124794006348,
                -4.490567207336426
            ]
        },
        {
            "name" : "Camera",
            "rotation" : [
                0.48170700669288635,
                0.3342514932155609,
                -0.21292176842689514,
                0.7816000580787659
            ],
            "translation" : [
                7.481131553649902,
                5.34366512298584,
                6.5076398849487305
            ]
        }
    ],
    "materials" : [
        {
            "doubleSided" : true,
            "name" : "Material",
            "pbrMetallicRoughness" : {
                "baseColorFactor" : [
                    0.800000011920929,
                    0.800000011920929,
                    0.800000011920929,
                    1
                ],
                "metallicFactor" : 0,
                "roughnessFactor" : 0.5
            }
        }
    ],
    "meshes" : [
        {
            "name" : "Mesh.003",
            "primitives" : [
                {
                    "attributes" : {
                        "POSITION" : 0,
                        "NORMAL" : 1
                    },
                    "indices" : 2,
                    "material" : 0
                }
            ]
        },
        {
            "name" : "Mesh.002",
            "primitives" : [
                {
                    "attributes" : {
                        "POSITION" : 3,
                        "NORMAL" : 4
                    },
                    "indices" : 2,
                    "material" : 0
                }
            ]
        },
        {
            "name" : "Mesh.001",
            "primitives" : [
                {
                    "attributes" : {
                        "POSITION" : 5,
                        "NORMAL" : 6
                    },
                    "indices" : 2,
                    "material" : 0
                }
            ]
        }
    ],
    "accessors" : [
        {
            "bufferView" : 0,
            "componentType" : 5126,
            "count" : 478,
            "max" : [
                2.9628024101257324,
                3.19802188873291,
                0.7940469980239868
            ],
            "min" : [
                -0.8495826721191406,
                -0.627142071723938,
                -5.571147918701172
            ],
            "type" : "VEC3"
        },
        {
            "bufferView" : 1,
            "componentType" : 5126,
            "count" : 478,
            "type" : "VEC3"
        },
        {
            "bufferView" : 2,
            "componentType" : 5123,
            "count" : 1836,
            "type" : "SCALAR"
        },
        {
            "bufferView" : 3,
            "componentType" : 5126,
            "count" : 478,
            "max" : [
                2.9628024101257324,
                3.19802188873291,
                0.7940469980239868
            ],
            "min" : [
                -0.8495826721191406,
                -0.627142071723938,
                -5.571147918701172
            ],
            "type" : "VEC3"
        },
        {
            "bufferView" : 4,
            "componentType" : 5126,
            "count" : 478,
            "type" : "VEC3"
        },
        {
            "bufferView" : 5,
            "componentType" : 5126,
            "count" : 478,
            "max" : [
                2.9628024101257324,
                3.19802188873291,
                0.7940469980239868
            ],
            "min" : [
                -0.8495826721191406,
                -0.627142071723938,
                -5.571147918701172
            ],
            "type" : "VEC3"
        },
        {
            "bufferView" : 6,
            "componentType" : 5126,
            "count" : 478,
            "type" : "VEC3"
        }
    ],
    "bufferViews" : [
        {
            "buffer" : 0,
            "byteLength" : 5736,
            "byteOffset" : 0
        },
        {
            "buffer" : 0,
            "byteLength" : 5736,
            "byteOffset" : 5736
        },
        {
            "buffer" : 0,
            "byteLength" : 3672,
            "byteOffset" : 11472
        },
        {
            "buffer" : 0,
            "byteLength" : 5736,
            "byteOffset" : 15144
        },
        {
            "buffer" : 0,
            "byteLength" : 5736,
            "byteOffset" : 20880
        },
        {
            "buffer" : 0,
            "byteLength" : 5736,
            "byteOffset" : 26616
        },
        {
            "buffer" : 0,
            "byteLength" : 5736,
            "byteOffset" : 32352
        }
    ],
    "buffers" : [
        {
            "byteLength" : 38088,
            "uri" : "data:application/octet-stream;base64,"
        }
    ]
}
